#usda 1.0
(
    defaultPrim = "Peg"
    metersPerUnit = 1.0
    upAxis = "Z"
    kilogramsPerUnit = 1.0
)

def Xform "Peg" (
    kind = "component"
)
{
    def Mesh "mesh_0"
    {
        point3f[] points = [
            (-0.12, -0.025, -0.025),
            ( 0.12, -0.025, -0.025),
            ( 0.12,  0.025, -0.025),
            (-0.12,  0.025, -0.025),
            (-0.12, -0.025,  0.025),
            ( 0.12, -0.025,  0.025),
            ( 0.12,  0.025,  0.025),
            (-0.12,  0.025,  0.025),
        ]

        int[] faceVertexCounts = [3, 3, 3, 3, 3, 3, 3, 3, 3, 3, 3, 3]
        int[] faceVertexIndices = [
            0, 1, 2, 0, 2, 3,
            4, 6, 5, 4, 7, 6,
            0, 5, 1, 0, 4, 5,
            2, 7, 3, 2, 6, 7,
            3, 4, 0, 3, 7, 4,
            1, 6, 2, 1, 5, 6,
        ]

        color3f[] primvars:displayColor = [(0.69, 0.055, 0.055)] (
            interpolation = "constant"
        )
    }
}
